<svg xmlns="http://www.w3.org/2000/svg" viewBox="0 0 180 180">
  <svg x="14.000" y="65.571" width="152" height="48.857" viewBox="0 0 560 180" preserveAspectRatio="xMidYMid meet">
    <g transform="scale(1.946518) translate(-153.5891 -374.6541)">
    <path fill="#E8231A" fill-rule="evenodd" d="M 204.9134 384.6541 L 205.0554 384.6555 L 389.8151 384.6555 L 389.9574 384.6541 L 390.0994 384.6555 L 391.5091 384.6555 L 391.5091 384.681 C 413.6088 385.399 431.2823 401.3686 431.2823 420.9597 C 431.2823 440.5505 413.6088 456.5194 391.5091 457.2375 L 391.5091 457.2649 L 390.02 457.2649 L 389.9574 457.2658 L 389.8945 457.2649 L 204.9761 457.2649 L 204.9134 457.2658 L 204.8505 457.2649 L 203.9264 457.2649 L 203.9264 457.2542 C 181.5636 456.7935 163.5891 440.7177 163.5891 420.9597 C 163.5891 401.2022 181.5636 385.1252 203.9264 384.6643 L 203.9264 384.6555 L 204.7711 384.6555 Z"></path>
    <path fill="#FFFFFF" fill-rule="evenodd" d="M 205.0092 391.921 L 204.7711 391.923 L 204.4468 391.923 L 204.12 391.9295 C 186.1877 392.2994 171.8612 405.2002 171.8612 420.9597 C 171.8612 436.7192 186.1877 449.6191 204.12 449.989 L 204.5923 449.9983 L 204.9761 449.9975 L 255.4716 450.1973 L 256.7537 446.5644 L 204.9761 446.3638 L 204.8031 446.3652 L 204.6518 446.3646 L 204.2175 446.3558 C 188.5286 446.0324 175.9972 434.746 175.9972 420.9597 C 175.9972 407.1731 188.5294 395.8861 204.2175 395.5627 L 204.4956 395.5567 L 204.7711 395.5567 L 205.0571 395.5547 L 389.8151 395.5567 L 390.0597 395.5547 L 390.4551 395.5553 L 391.0507 395.5751 C 406.5752 396.0794 418.8742 407.3106 418.8742 420.9597 C 418.8742 434.6088 406.5744 445.8391 391.0507 446.3436 L 390.4296 446.3638 L 390.02 446.3638 L 389.7944 446.3652 L 288.1431 446.3646 L 286.8114 449.9975 L 390.5065 449.9975 L 391.2029 449.9751 C 408.9492 449.398 423.0102 436.563 423.0102 420.9597 C 423.0102 405.3564 408.9492 392.5205 391.2029 391.9434 L 390.5379 391.9215 L 390.0291 391.9215 L 389.8151 391.923 Z"></path>
    <path fill="#FFFFFF" fill-rule="nonzero" d="M 192.4812 427.4771 L 198.5471 426.9895 L 198.3005 428.3861 C 198.0862 429.9429 198.2957 431.3682 198.9283 432.6625 C 199.563 433.9474 200.7689 434.9503 202.5507 435.6536 C 204.3218 436.3572 206.5039 436.7135 209.0974 436.7135 C 212.7586 436.7135 215.663 436.0099 217.7782 434.594 C 219.9047 433.1878 221.0871 431.5746 221.3376 429.7556 C 221.5106 428.499 221.1574 427.3455 220.288 426.2953 C 219.382 425.2737 216.7243 423.8856 212.3235 422.1224 C 208.9046 420.7533 206.5966 419.6937 205.3831 418.9624 C 203.4774 417.7712 202.1397 416.4778 201.3506 415.0803 C 200.5622 413.6741 200.2901 412.0796 200.5381 410.2793 C 200.8227 408.2159 201.7318 406.3403 203.2523 404.6811 C 204.7734 403.0118 206.839 401.7362 209.4471 400.8549 C 212.0652 399.9827 214.9325 399.5422 218.0602 399.5422 C 221.7957 399.5422 224.8699 400.0859 227.2785 401.1928 C 229.6891 402.2895 231.3451 403.7525 232.2567 405.5809 C 233.1567 407.4188 233.4917 409.163 233.2619 410.8323 C 233.2386 411.001 233.1907 411.2728 233.117 411.6572 L 227.1569 412.0699 C 227.3134 410.9355 227.3185 410.0446 227.1711 409.4073 C 226.9106 408.2814 226.3992 407.344 225.6299 406.575 C 224.8605 405.8062 223.7397 405.1868 222.2674 404.7183 C 220.8056 404.2494 219.119 404.0147 217.2305 404.0147 C 213.8893 404.0147 211.2035 404.6811 209.166 405.9936 C 207.6066 407.0061 206.7191 408.3381 206.49 410.0069 C 206.3526 411.001 206.519 411.8826 206.9994 412.6609 C 207.4785 413.4393 208.4207 414.1987 209.8434 414.9488 C 210.8477 415.4837 213.2756 416.5336 217.1245 418.1094 C 220.2466 419.3935 222.3808 420.397 223.528 421.1377 C 225.0601 422.1034 226.1784 423.2852 226.8848 424.664 C 227.5914 426.0425 227.823 427.6174 227.5815 429.3709 C 227.2802 431.5564 226.2563 433.5628 224.4866 435.4104 C 222.7181 437.2481 220.4402 438.6734 217.6333 439.6771 C 214.8259 440.6894 211.6939 441.1866 208.2577 441.1866 C 203.0703 441.1866 198.9689 440.1922 195.9554 438.2045 C 192.9526 436.2163 191.7904 432.6435 192.4812 427.4771 Z M 233.5297 428.4145 L 235.4102 423.4442 L 252.669 423.4442 L 250.8211 428.4145 Z Z M 250.3372 447.7346 L 268.1521 400.2268 L 275.688 400.2268 L 276.726 426.3237 C 276.8502 429.7556 276.8046 433.0375 276.5514 436.1885 C 278.1952 433.4786 280.8249 429.8026 284.4522 425.1705 L 303.9619 400.2268 L 311.6146 400.2268 L 293.258 448.8769 L 287.2276 448.8769 L 297.9539 420.9132 C 299.687 416.3964 301.9643 411.3199 304.7998 405.6934 C 303.1265 408.3098 301.1148 411.1325 298.7563 414.1523 L 278.0495 440.502 L 272.1475 440.502 L 271.1044 414.6769 C 271.0125 412.3143 271.0945 409.557 271.336 406.4066 C 270.326 409.9414 269.4274 412.746 268.6507 414.8178 L 256.3038 447.7346 Z Z M 302.2894 440.502 L 333.8161 400.2268 L 341.0416 400.2268 L 343.0619 440.502 L 337.1272 440.502 L 336.5036 428.9117 L 317.9534 428.9117 L 309.0138 440.502 Z Z M 321.1506 424.7575 L 336.3177 424.7575 L 335.9279 414.6486 C 335.7981 410.6353 335.8304 407.2967 336.028 404.6244 C 334.6639 406.9313 332.7712 409.6695 330.3278 412.839 Z Z M 374.7076 424.626 L 376.4364 420.0591 L 396.502 420.0591 L 390.3369 436.4604 C 387.6253 437.8573 384.5869 438.9925 381.2417 439.8733 C 377.8875 440.7455 374.6463 441.1866 371.5194 441.1866 C 364.8481 441.1866 360.1066 439.4234 357.3062 435.8886 C 354.943 432.8972 354.0835 429.0614 354.7287 424.3731 C 355.3946 419.544 357.2178 415.1362 360.186 411.179 C 363.1663 407.2125 366.6339 404.2778 370.5987 402.3831 C 374.5522 400.4893 378.8031 399.5422 383.3181 399.5422 C 386.5731 399.5422 389.427 400.0575 391.8674 401.0896 C 394.3074 402.1302 396.0927 403.509 397.23 405.2435 C 398.3692 406.969 399.0506 409.2285 399.2749 412.0141 L 393.1875 412.5861 C 392.927 409.8289 391.8756 407.7 390.0498 406.2283 C 388.2144 404.756 385.7111 404.0147 382.5198 404.0147 C 379.201 404.0147 375.9965 404.8121 372.9067 406.3969 C 369.8065 407.9812 367.1824 410.3731 365.0241 413.5612 C 362.8653 416.759 361.5012 420.3876 360.9403 424.4573 C 360.3827 428.5083 361.0933 431.5649 363.0813 433.6376 C 365.0698 435.7009 368.0651 436.7415 372.0671 436.7415 C 376.0486 436.7415 380.4982 435.5884 385.3967 433.2722 L 388.6577 424.626 Z"></path>
  </g>
  </svg>
</svg>
